# xmcd
#
# Track frame offsets:
#   150
#   19534
#   40411
#   53896
#   71630
#   84719
#   99767
#   114846
#   130241
#   142748
#   158995
#   171296
#   189057
#
# Disc length: 2732 seconds
#
# Revision: 0
# Processed by: cddbd v1.5.2PL0 Copyright (c) Steve Scherf et al.
# Submitted via: GXTranscoder 2.0.1939
#
DISCID=9e0aaa0d
DTITLE=Norah Jones - Not too late
DYEAR=1900
DGENRE=Blues
TTITLE0=Wish I could
TTITLE1=Sinkin soon
TTITLE2=The sun doesn`t like you
TTITLE3=Until the end
TTITLE4=Not my friend
TTITLE5=Thinking about you
TTITLE6=Broken
TTITLE7=My dear country
TTITLE8=Wake me up
TTITLE9=Be my somebody
TTITLE10=Little Room
TTITLE11=Rosie`s Lullaby
TTITLE12=Not too late
EXTD=
EXTT0=
EXTT1=
EXTT2=
EXTT3=
EXTT4=
EXTT5=
EXTT6=
EXTT7=
EXTT8=
EXTT9=
EXTT10=
EXTT11=
EXTT12=
PLAYORDER=
